<svg width="24" height="24" viewBox="0 0 24 24" fill="none" xmlns="http://www.w3.org/2000/svg">
<path d="M15.8692 2.66878L20.8378 7.6373C21.7164 8.51598 21.7164 9.9406 20.8378 10.8193L12.156 19.4998L18.2538 19.5C18.6335 19.5 18.9473 19.7821 18.997 20.1482L19.0038 20.25C19.0038 20.6297 18.7217 20.9435 18.3556 20.9931L18.2538 21L9.84382 21.0012C9.22761 21.0348 8.60021 20.8163 8.12949 20.3456L3.16096 15.377C2.28228 14.4984 2.28228 13.0737 3.16096 12.1951L12.6872 2.66878C13.5659 1.7901 14.9905 1.7901 15.8692 2.66878ZM5.70795 11.7678L4.22162 13.2557C3.92873 13.5486 3.92873 14.0235 4.22162 14.3164L9.19015 19.2849C9.3366 19.4314 9.52854 19.5046 9.72048 19.5046L9.74936 19.5L9.78785 19.5016C9.95676 19.4864 10.1215 19.4142 10.2508 19.2849L11.737 17.7978L5.70795 11.7678ZM13.7479 3.72944L6.76895 10.7068L12.798 16.7368L19.7771 9.75862C20.07 9.46573 20.07 8.99085 19.7771 8.69796L14.8086 3.72944C14.5157 3.43654 14.0408 3.43654 13.7479 3.72944Z" fill="#1C1C1E"/>
</svg>
